<svg width="17" height="17" viewBox="0 0 17 17" fill="none" xmlns="http://www.w3.org/2000/svg">
<rect x="16.9082" y="17" width="16" height="16.1308" rx="8" transform="rotate(-180 16.9082 17)" fill="#FF5B5B" fill-opacity="0.15"/>
<g clip-path="url(#clip0_1_584)">
<path d="M6.92839 9.74445L8.57545 11.405C8.6637 11.4939 8.78337 11.5439 8.90815 11.5439C9.03294 11.5439 9.15261 11.4939 9.24086 11.405L10.8879 9.74445C10.9736 9.65497 11.0211 9.53513 11.02 9.41074C11.0189 9.28634 10.9694 9.16735 10.8822 9.07938C10.7949 8.99142 10.6769 8.94152 10.5535 8.94044C10.4301 8.93936 10.3113 8.98718 10.2225 9.0736L9.37874 9.92426L9.37874 6.79964C9.37874 6.67381 9.32916 6.55313 9.24091 6.46416C9.15266 6.37519 9.03296 6.3252 8.90816 6.3252C8.78335 6.3252 8.66365 6.37519 8.5754 6.46416C8.48715 6.55313 8.43757 6.67381 8.43757 6.79964L8.43757 9.92426L7.5938 9.0736C7.50505 8.98718 7.38618 8.93936 7.26279 8.94044C7.1394 8.94152 7.02137 8.99142 6.93412 9.07938C6.84687 9.16735 6.79738 9.28634 6.79631 9.41073C6.79524 9.53513 6.84267 9.65497 6.92839 9.74445Z" fill="#FF5B5B"/>
</g>
<defs>
<clipPath id="clip0_1_584">
<rect width="5.64706" height="5.69322" fill="white" transform="translate(11.7319 11.7812) rotate(-180)"/>
</clipPath>
</defs>
</svg>
