<svg width="17" height="17" viewBox="0 0 17 17" fill="none" xmlns="http://www.w3.org/2000/svg">
<rect x="16.373" y="17" width="16" height="16.1308" rx="8" transform="rotate(-180 16.373 17)" fill="#2ED6A3" fill-opacity="0.15"/>
<g clip-path="url(#clip0_1_531)">
<path d="M6.39323 8.7956C6.48148 8.88455 6.60116 8.93451 6.72594 8.93451C6.85072 8.93451 6.9704 8.88455 7.05865 8.7956L7.90241 7.94494L7.90241 11.0696C7.90241 11.1954 7.95199 11.3161 8.04024 11.405C8.12849 11.494 8.24819 11.544 8.373 11.544C8.49781 11.544 8.6175 11.494 8.70575 11.405C8.79401 11.3161 8.84359 11.1954 8.84359 11.0696L8.84359 7.94494L9.68735 8.7956C9.77611 8.88203 9.89498 8.92985 10.0184 8.92877C10.1418 8.92768 10.2598 8.87779 10.347 8.78982C10.4343 8.70186 10.4838 8.58287 10.4848 8.45847C10.4859 8.33408 10.4385 8.21423 10.3528 8.12475L8.7057 6.46423C8.61746 6.37529 8.49778 6.32532 8.373 6.32532C8.24822 6.32532 8.12854 6.37529 8.04029 6.46423L6.39323 8.12475C6.30501 8.21372 6.25545 8.33438 6.25545 8.46018C6.25545 8.58598 6.30501 8.70663 6.39323 8.7956Z" fill="#00A389"/>
</g>
<defs>
<clipPath id="clip0_1_531">
<rect width="5.64706" height="5.69322" fill="white" transform="translate(11.1965 11.7812) rotate(-180)"/>
</clipPath>
</defs>
</svg>
