<svg width="77" height="91" viewBox="0 0 77 91" fill="none" xmlns="http://www.w3.org/2000/svg">
<path d="M44.0375 90.3524C41.9133 90.6673 39.7397 90.8318 37.528 90.8318C29.4375 90.8318 21.8579 88.6476 15.3428 84.8406C16.3725 81.0192 18.3537 77.6225 20.9946 74.8857C20.8823 75.0019 20.7706 75.1187 20.6608 75.2372H47.8673L44.0375 90.3524Z" fill="#E9E3D5"/>
<path d="M59.7131 84.8406C58.7586 81.2986 56.9801 78.1854 54.798 75.683C53.3805 74.0954 51.9116 72.7508 50.0546 71.5692C49.9272 71.4767 49.3009 71.0971 49.0996 70.9794C39.6362 65.4302 27.8718 67.4446 20.6609 75.2374C26.9077 77.7975 33.6625 78.9667 40.4478 78.6537C40.7012 78.719 40.9395 78.7477 41.1657 78.7477C42.7518 78.7477 44.0377 80.0336 44.0377 81.6197V90.3524C49.6829 89.5151 54.9793 87.6069 59.7131 84.8406Z" fill="#D3CDBF"/>
<path d="M54.4256 87.4698C52.9181 88.0971 51.3686 88.6431 49.782 89.1023V78.7478C52.1025 81.0952 53.7537 84.1057 54.4256 87.4698Z" fill="#A19B8D"/>
<path d="M25.274 78.7478V89.1023C23.6873 88.6433 22.1378 88.0971 20.6304 87.4698C21.3022 84.1057 22.9532 81.0952 25.274 78.7478Z" fill="#B6B0A2"/>
<path d="M38.2941 84.5887C39.0871 84.5887 39.73 83.9458 39.73 83.1527C39.73 82.3597 39.0871 81.7168 38.2941 81.7168C37.501 81.7168 36.8582 82.3597 36.8582 83.1527C36.8582 83.9458 37.501 84.5887 38.2941 84.5887Z" fill="#3E4954"/>
<path d="M38.2941 90.3326C39.0871 90.3326 39.73 89.6897 39.73 88.8967C39.73 88.1037 39.0871 87.4608 38.2941 87.4608C37.501 87.4608 36.8582 88.1037 36.8582 88.8967C36.8582 89.6897 37.501 90.3326 38.2941 90.3326Z" fill="#3E4954"/>
<path d="M65.0993 47.5904C65.0993 32.7468 53.0582 16.9554 38.2937 16.9554C26.0483 16.9554 15.7214 27.7865 12.5169 39.9087C11.3455 39.3127 10.0207 38.9743 8.6161 38.9743C3.85762 38.9743 0 42.8317 0 47.5904C0 52.349 3.85743 56.2065 8.6161 56.2065C8.86288 56.2065 9.10644 56.1936 9.34793 56.1733C9.5881 61.1063 12.2275 65.8017 16.8534 68.5442C30.0153 76.3465 46.5721 76.3465 59.7341 68.5442C67.1214 64.1649 69.3948 54.8818 65.0993 47.5904Z" fill="#FFB578"/>
<path d="M67.9714 38.9743C66.566 38.9743 65.2405 39.3129 64.0685 39.9098C61.9454 31.8763 56.6979 24.4243 49.8487 20.3016C49.8487 20.3016 57.239 29.0202 57.239 45.6767C57.239 50.7694 54.5132 55.6814 49.7155 58.5253C37.6293 65.6899 22.681 66.2743 10.127 60.2811C11.2518 63.6163 13.5423 66.5811 16.8536 68.544C30.0155 76.3464 46.5723 76.3464 59.7341 68.544C64.3817 65.7889 67.003 61.0931 67.2401 56.1733C67.4814 56.1936 67.7248 56.2065 67.9714 56.2065C72.7299 56.2065 76.5875 52.349 76.5875 47.5904C76.5875 42.8317 72.7299 38.9743 67.9714 38.9743Z" fill="#F7A16E"/>
<path d="M8.61642 50.4633C10.2026 50.4633 11.4885 49.1775 11.4885 47.5913C11.4885 46.0051 10.2026 44.7193 8.61642 44.7193C7.03024 44.7193 5.74438 46.0051 5.74438 47.5913C5.74438 49.1775 7.03024 50.4633 8.61642 50.4633Z" fill="#F7A16E"/>
<path d="M67.9716 50.4633C69.5578 50.4633 70.8437 49.1775 70.8437 47.5913C70.8437 46.0051 69.5578 44.7193 67.9716 44.7193C66.3855 44.7193 65.0996 46.0051 65.0996 47.5913C65.0996 49.1775 66.3855 50.4633 67.9716 50.4633Z" fill="#CE795F"/>
<path d="M12.5169 39.8981C14.4505 40.8818 15.9629 42.5732 16.713 44.6313C17.0566 45.5743 18.2399 45.8973 18.9953 45.2368C22.608 42.0787 24.891 37.4379 24.891 32.2623C24.891 29.0447 24.0081 26.0338 22.4727 23.4564C22.4727 23.4566 10.865 26.6637 12.5169 39.8981Z" fill="#596775"/>
<path d="M54.1148 23.4566C52.5797 26.0338 51.6965 29.0449 51.6965 32.2625C51.6965 37.4382 53.9794 42.0789 57.5923 45.237C58.3481 45.8975 59.5312 45.5745 59.8745 44.6315C60.6243 42.5732 62.137 40.882 64.0706 39.8983C65.7228 26.6637 54.1148 23.4566 54.1148 23.4566Z" fill="#46525E"/>
<path d="M63.1848 11.2008H13.4031V31.6784H63.1848V11.2008Z" fill="#E9E3D5"/>
<path d="M62.1315 -1.52588e-05C60.7428 -1.52588e-05 15.1909 -1.52588e-05 14.4559 -1.52588e-05C9.64458 -1.52588e-05 5.74414 3.90043 5.74414 8.71174C5.74414 13.5231 9.64458 17.4235 14.4559 17.4235C14.8251 17.4235 61.1806 17.4235 62.1315 17.4235C66.9428 17.4235 70.8433 13.5231 70.8433 8.71174C70.8433 3.90043 66.9428 -1.52588e-05 62.1315 -1.52588e-05Z" fill="#E9E3D5"/>
<path d="M70.8433 8.71173C70.8433 7.19883 70.4571 5.7763 69.7786 4.53659C67.9143 5.01051 66.5351 6.7 66.5351 8.71173C66.5351 11.1398 64.5596 13.1155 62.1313 13.1155H14.4559C12.4442 13.1155 10.7547 14.4947 10.2808 16.359C11.5205 17.0375 12.943 17.4237 14.4559 17.4237H22.9762H38.2936C48.8562 17.4237 61.1591 17.4237 62.1313 17.4237C66.9428 17.4235 70.8433 13.5232 70.8433 8.71173Z" fill="#D3CDBF"/>
<path d="M15.7005 8.71177C15.7005 7.91863 15.0575 7.27585 14.2645 7.27585C13.4714 7.27585 12.8286 7.91882 12.8286 8.71177C12.8286 11.0991 13.6593 13.2952 15.0445 15.0301H19.376C17.1826 13.7755 15.7005 11.4144 15.7005 8.71177Z" fill="#D3CDBF"/>
<path d="M63.7589 8.71177C63.7589 7.91863 63.116 7.27585 62.323 7.27585C61.5301 7.27585 60.8871 7.91882 60.8871 8.71177C60.8871 11.4144 59.4049 13.7755 57.2119 15.0301H61.5435C62.9283 13.2952 63.7589 11.0993 63.7589 8.71177Z" fill="#D3CDBF"/>
<path d="M53.6111 7.27585C52.818 7.27585 52.1752 7.91882 52.1752 8.71177C52.1752 11.4144 50.693 13.7755 48.5 15.0301H52.8315C54.2165 13.295 55.0474 11.0991 55.0474 8.71177C55.0472 7.91882 54.4042 7.27585 53.6111 7.27585Z" fill="#D3CDBF"/>
<path d="M27.1885 8.71177C27.1885 7.91863 26.5455 7.27585 25.7526 7.27585C24.9596 7.27585 24.3167 7.91882 24.3167 8.71177C24.3167 11.0991 25.1473 13.2952 26.5325 15.0301H30.8641C28.6708 13.7755 27.1885 11.4144 27.1885 8.71177Z" fill="#D3CDBF"/>
</svg>
